<?xml version="1.0" encoding="utf-8"?>
<!-- Generator: Adobe Illustrator 27.8.0, SVG Export Plug-In . SVG Version: 6.00 Build 0)  -->
<svg version="1.1" id="Calque_2" xmlns="http://www.w3.org/2000/svg" xmlns:xlink="http://www.w3.org/1999/xlink" x="0px" y="0px"
	 width="56.69px" height="56.69px" viewBox="0 0 56.69 56.69" enable-background="new 0 0 56.69 56.69" xml:space="preserve">
<circle fill="#E11A14" cx="28.35" cy="28.35" r="28.35"/>
<g>
	<g>
		<path fill="#FFFFFF" d="M42.02,16.73c-0.1-0.11-0.2-0.22-0.3-0.34c-0.05-0.05-0.09-0.1-0.14-0.15c-0.1-0.11-0.2-0.21-0.3-0.31
			c-0.2-0.21-0.4-0.41-0.61-0.6c-0.05-0.05-0.1-0.09-0.15-0.14c-0.08-0.07-0.16-0.14-0.24-0.21c-0.01-0.01-0.01-0.01-0.02-0.02
			c-0.07-0.06-0.15-0.13-0.22-0.19c-0.07-0.06-0.14-0.12-0.22-0.18c-0.01-0.01-0.03-0.03-0.05-0.04c-0.07-0.06-0.15-0.12-0.22-0.18
			c-0.03-0.03-0.06-0.05-0.09-0.08c-0.03-0.02-0.06-0.05-0.09-0.07c-0.06-0.05-0.12-0.09-0.18-0.14c-0.07-0.05-0.14-0.1-0.2-0.15
			c-0.14-0.1-0.27-0.2-0.41-0.29c-0.04-0.03-0.09-0.06-0.13-0.09c-0.37-0.26-0.76-0.5-1.15-0.72c-0.05-0.03-0.09-0.05-0.14-0.08
			c-0.1-0.05-0.19-0.11-0.29-0.16c-0.08-0.05-0.17-0.09-0.25-0.13c0,0-0.01,0-0.01-0.01c-0.05-0.02-0.09-0.05-0.14-0.07
			c-0.12-0.06-0.23-0.12-0.35-0.17c-0.05-0.03-0.11-0.05-0.16-0.08c-0.1-0.05-0.21-0.1-0.31-0.14c-0.06-0.03-0.11-0.05-0.17-0.08
			c-0.08-0.04-0.16-0.07-0.25-0.11c-0.05-0.02-0.1-0.04-0.15-0.06c-0.12-0.05-0.24-0.1-0.35-0.14c-0.04-0.01-0.08-0.03-0.12-0.04
			c0,0-0.01,0-0.01-0.01c-0.12-0.04-0.23-0.08-0.35-0.13c-0.12-0.04-0.24-0.08-0.36-0.12c-0.08-0.02-0.15-0.05-0.23-0.07
			c-0.06-0.02-0.12-0.04-0.18-0.06c-0.01,0-0.02-0.01-0.03-0.01c-0.05-0.01-0.1-0.03-0.15-0.04c-0.31-0.09-0.63-0.18-0.95-0.25
			c-0.03-0.01-0.05-0.01-0.08-0.02c-0.05-0.01-0.1-0.02-0.14-0.03c-0.05-0.01-0.1-0.02-0.14-0.03c-0.1-0.02-0.19-0.04-0.29-0.06
			c-0.07-0.01-0.13-0.03-0.2-0.04c-0.09-0.02-0.18-0.03-0.27-0.05c-0.01,0-0.01,0-0.02,0c-0.09-0.02-0.19-0.03-0.28-0.05
			c-0.16-0.02-0.31-0.05-0.47-0.07c-0.04-0.01-0.08-0.01-0.12-0.01c-0.12-0.01-0.25-0.03-0.37-0.04c-0.07-0.01-0.14-0.01-0.2-0.02
			c-0.05,0-0.11-0.01-0.16-0.01c-0.12-0.01-0.23-0.02-0.35-0.02c-0.07,0-0.13-0.01-0.2-0.01c-0.06,0-0.11-0.01-0.17-0.01
			c-0.06,0-0.12,0-0.17-0.01c-0.06,0-0.12,0-0.18,0c-0.08,0-0.16,0-0.25,0c-0.04,0-0.07,0-0.11,0c-0.04,0-0.07,0-0.11,0
			c-0.08,0-0.17,0-0.25,0c-0.05,0-0.1,0-0.14,0c-0.06,0-0.12,0-0.18,0.01c-0.02,0-0.04,0-0.06,0l-0.06,0c-0.03,0-0.05,0-0.08,0
			c-0.07,0-0.14,0.01-0.21,0.01c-0.01,0-0.01,0-0.02,0c-0.1,0.01-0.19,0.01-0.29,0.02c-0.01,0-0.02,0-0.03,0
			c-0.09,0.01-0.18,0.02-0.27,0.02c-0.04,0-0.07,0.01-0.11,0.01c-0.12,0.01-0.23,0.02-0.35,0.04c-0.04,0.01-0.07,0.01-0.11,0.01
			c-0.02,0-0.03,0-0.05,0.01c-0.05,0.01-0.11,0.01-0.16,0.02c-0.02,0-0.04,0-0.06,0.01c-0.06,0.01-0.11,0.02-0.17,0.02
			c-0.21,0.03-0.41,0.07-0.62,0.1c-0.07,0.01-0.13,0.02-0.2,0.04c-0.12,0.02-0.23,0.05-0.35,0.07c-0.05,0.01-0.11,0.02-0.16,0.04
			c-0.02,0-0.04,0.01-0.06,0.01c-0.04,0.01-0.08,0.02-0.12,0.03c-0.37,0.09-0.74,0.19-1.1,0.3c-0.03,0.01-0.06,0.02-0.09,0.03
			c-0.04,0.01-0.08,0.03-0.12,0.04c-0.05,0.02-0.1,0.03-0.15,0.05c-0.04,0.01-0.09,0.03-0.13,0.04c-0.08,0.03-0.15,0.05-0.23,0.08
			c-0.08,0.03-0.16,0.05-0.23,0.08c-0.03,0.01-0.05,0.02-0.08,0.03c-0.01,0-0.02,0.01-0.02,0.01c-0.06,0.02-0.12,0.05-0.19,0.07
			c-0.04,0.02-0.08,0.03-0.12,0.05c-0.04,0.01-0.08,0.03-0.12,0.05c-0.03,0.01-0.07,0.03-0.1,0.04c-0.08,0.03-0.16,0.07-0.24,0.1
			c-0.1,0.04-0.19,0.08-0.29,0.12c-0.12,0.05-0.24,0.11-0.36,0.16c-0.04,0.02-0.08,0.04-0.11,0.05c-0.05,0.02-0.11,0.05-0.16,0.08
			c-0.07,0.04-0.15,0.07-0.22,0.11c-0.04,0.02-0.08,0.04-0.13,0.06c-0.04,0.02-0.08,0.04-0.12,0.06c-0.41,0.21-0.8,0.44-1.19,0.68
			c-0.06,0.04-0.12,0.08-0.18,0.12c-0.05,0.03-0.1,0.06-0.15,0.1c-0.09,0.06-0.18,0.12-0.26,0.18c-0.09,0.06-0.17,0.12-0.26,0.18
			c-0.13,0.09-0.25,0.18-0.37,0.27c-0.06,0.04-0.11,0.08-0.17,0.13c-0.05,0.04-0.1,0.07-0.15,0.11c-0.05,0.04-0.09,0.07-0.14,0.11
			c-0.05,0.04-0.1,0.08-0.15,0.12c-0.06,0.05-0.13,0.1-0.19,0.16c-0.01,0-0.01,0.01-0.02,0.01c-0.12,0.1-0.24,0.2-0.36,0.31
			c-0.2,0.18-0.4,0.36-0.59,0.55c-0.1,0.1-0.21,0.2-0.31,0.3c0,0,0,0-0.01,0.01c-0.11,0.12-0.23,0.23-0.34,0.35
			c-0.09,0.09-0.17,0.18-0.25,0.28c-0.08,0.09-0.17,0.18-0.25,0.28c-2.86,3.31-4.44,7.55-4.45,11.93v0.02
			c0.01,4.39,1.59,8.63,4.45,11.95c0.1,0.11,0.2,0.22,0.3,0.34c0.04,0.05,0.09,0.1,0.14,0.15c0.1,0.11,0.2,0.21,0.3,0.31
			c0.2,0.21,0.4,0.41,0.61,0.6c0.05,0.05,0.1,0.09,0.15,0.14c0.08,0.07,0.16,0.14,0.24,0.21c0.01,0.01,0.01,0.01,0.02,0.02
			c0.07,0.06,0.15,0.13,0.22,0.19c0.07,0.06,0.14,0.12,0.22,0.18c0.01,0.01,0.03,0.03,0.05,0.04c0.07,0.06,0.15,0.12,0.22,0.18
			c0.03,0.03,0.06,0.05,0.09,0.08c0.03,0.02,0.06,0.05,0.09,0.07c0.06,0.05,0.12,0.09,0.18,0.14c0.07,0.05,0.14,0.1,0.2,0.15
			c0.14,0.1,0.27,0.2,0.41,0.29c0.04,0.03,0.09,0.06,0.13,0.09c0.37,0.26,0.76,0.5,1.15,0.72c0.05,0.03,0.09,0.05,0.14,0.08
			c0.1,0.05,0.19,0.11,0.29,0.16c0.08,0.05,0.17,0.09,0.25,0.13c0,0,0.01,0,0.01,0.01c0.05,0.02,0.09,0.05,0.14,0.07
			c0.12,0.06,0.23,0.12,0.35,0.17c0.05,0.03,0.11,0.05,0.16,0.08c0.1,0.05,0.21,0.1,0.31,0.14c0.06,0.03,0.11,0.05,0.17,0.08
			c0.08,0.04,0.16,0.07,0.25,0.11c0.05,0.02,0.1,0.04,0.15,0.06c0.12,0.05,0.24,0.1,0.35,0.14c0.04,0.02,0.08,0.03,0.12,0.04
			c0,0,0.01,0,0.01,0c0.12,0.04,0.23,0.09,0.35,0.13c0.12,0.04,0.24,0.08,0.36,0.12c0.08,0.02,0.15,0.05,0.23,0.07
			c0.06,0.02,0.12,0.04,0.18,0.06c0.01,0,0.02,0.01,0.03,0.01c0.05,0.02,0.1,0.03,0.15,0.04c0.31,0.09,0.63,0.18,0.95,0.25
			c0.03,0.01,0.05,0.01,0.08,0.02c0.05,0.01,0.1,0.02,0.14,0.03c0.05,0.01,0.1,0.02,0.14,0.03c0.1,0.02,0.19,0.04,0.29,0.06
			c0.07,0.01,0.13,0.03,0.2,0.04c0.09,0.02,0.18,0.03,0.27,0.05c0.01,0,0.01,0,0.02,0c0.09,0.02,0.19,0.03,0.28,0.05
			c0.16,0.02,0.31,0.05,0.47,0.07c0.04,0.01,0.08,0.01,0.11,0.01c0.12,0.02,0.25,0.03,0.37,0.04c0.07,0.01,0.14,0.01,0.2,0.02
			c0.05,0,0.11,0.01,0.16,0.01c0.12,0.01,0.24,0.02,0.35,0.02c0.07,0,0.13,0.01,0.2,0.01c0.06,0,0.11,0.01,0.17,0.01
			c0.06,0,0.12,0,0.17,0c0.06,0,0.12,0,0.18,0c0.08,0,0.16,0,0.25,0c0.04,0,0.07,0,0.11,0c0.04,0,0.07,0,0.11,0
			c0.08,0,0.16,0,0.25,0c0.05,0,0.1,0,0.14,0c0.06,0,0.12,0,0.18-0.01c0.02,0,0.04,0,0.06,0l0.06,0c0.03,0,0.05,0,0.08,0
			c0.07,0,0.14-0.01,0.21-0.01c0.01,0,0.01,0,0.02,0c0.1-0.01,0.19-0.01,0.29-0.02c0.01,0,0.02,0,0.03,0
			c0.09-0.01,0.18-0.01,0.27-0.02c0.04,0,0.07-0.01,0.11-0.01c0.12-0.01,0.23-0.02,0.35-0.04c0.04,0,0.07-0.01,0.11-0.01
			c0.02,0,0.03,0,0.05-0.01c0.05-0.01,0.11-0.01,0.16-0.02c0.02,0,0.04,0,0.06-0.01c0.06-0.01,0.11-0.02,0.17-0.02
			c0.21-0.03,0.41-0.07,0.62-0.1c0.07-0.01,0.13-0.02,0.2-0.04c0.12-0.02,0.23-0.05,0.35-0.07c0.05-0.01,0.11-0.02,0.16-0.04
			c0.02,0,0.04-0.01,0.06-0.01c0.04-0.01,0.08-0.02,0.12-0.03c0.37-0.09,0.74-0.19,1.1-0.3c0.03-0.01,0.06-0.02,0.09-0.03
			c0.04-0.01,0.08-0.03,0.12-0.04c0.05-0.02,0.1-0.03,0.15-0.05c0.04-0.01,0.09-0.03,0.13-0.04c0.01,0,0.02-0.01,0.03-0.01
			l-0.58-5.67c-1.16,2.14-2.57,3.52-4.05,4.01v-6.42c1.32,0.05,2.6,0.18,3.84,0.39l-0.26-2.48c-1.16-0.17-2.36-0.28-3.58-0.32v-5.65
			h2.96l-0.09-0.88c-0.06-0.54,0.11-1.08,0.46-1.49h-3.33v-5.65c1.96-0.07,3.86-0.31,5.67-0.71c0.54,1.95,0.86,4.11,0.95,6.36h-0.1
			l3.59,2.37h4.52c-0.07,0.91-0.22,1.81-0.44,2.69l2.12,1.39c0.51-1.69,0.78-3.46,0.78-5.26v-0.02
			C46.47,24.29,44.89,20.05,42.02,16.73z M22.83,17.17c1.18-2.23,2.61-3.67,4.13-4.17v6.42c-1.7-0.06-3.33-0.26-4.9-0.6
			C22.3,18.25,22.55,17.7,22.83,17.17z M26.96,21.84v5.65h-6.62c0.09-2.25,0.41-4.41,0.95-6.36C23.1,21.53,25,21.77,26.96,21.84z
			 M17.75,16.7c0.05-0.04,0.1-0.08,0.14-0.12c0.05-0.04,0.1-0.08,0.15-0.12c0.05-0.04,0.1-0.08,0.15-0.12
			c0.2-0.16,0.4-0.31,0.6-0.46c0.05-0.04,0.1-0.08,0.15-0.11c0.05-0.04,0.1-0.07,0.16-0.11c0.05-0.04,0.1-0.07,0.16-0.11
			c0.04-0.03,0.08-0.06,0.12-0.08c0.04-0.02,0.07-0.05,0.11-0.07c0.02-0.01,0.04-0.03,0.07-0.04c0.02-0.02,0.05-0.03,0.07-0.04
			c0.06-0.04,0.12-0.08,0.18-0.11c0.06-0.04,0.12-0.08,0.18-0.11c0.04-0.02,0.07-0.04,0.11-0.06c0.1-0.06,0.2-0.12,0.29-0.17
			c0.08-0.05,0.16-0.09,0.25-0.14c0.07-0.04,0.14-0.07,0.2-0.11c0.01-0.01,0.03-0.02,0.05-0.02c0.09-0.05,0.18-0.09,0.27-0.13
			c0.05-0.02,0.1-0.05,0.14-0.07c0.2-0.09,0.39-0.19,0.6-0.27c0.01,0,0.02-0.01,0.03-0.01v0c-0.43,0.59-0.84,1.24-1.22,1.96
			c-0.36,0.68-0.69,1.41-0.98,2.17c-0.91-0.29-1.75-0.62-2.53-1C17.37,17.04,17.56,16.87,17.75,16.7z M15.52,19.08
			c1.04,0.55,2.19,1.03,3.44,1.43c-0.59,2.16-0.95,4.53-1.04,6.99h-5.61C12.55,24.44,13.67,21.51,15.52,19.08z M15.52,38.28
			c-1.86-2.44-2.97-5.36-3.2-8.42h5.61c0.09,2.46,0.44,4.83,1.04,6.99C17.72,37.25,16.56,37.73,15.52,38.28z M21.78,43.21
			c-0.02-0.01-0.05-0.02-0.07-0.03c-0.02-0.01-0.05-0.02-0.07-0.03c-0.05-0.02-0.1-0.04-0.14-0.07c-0.08-0.03-0.16-0.07-0.23-0.11
			c-0.03-0.01-0.05-0.03-0.08-0.04c-0.08-0.04-0.17-0.08-0.25-0.12c-0.08-0.04-0.16-0.08-0.25-0.13c-0.07-0.04-0.13-0.07-0.2-0.11
			c-0.07-0.04-0.15-0.08-0.22-0.12c-0.07-0.04-0.14-0.08-0.2-0.12c-0.02-0.01-0.04-0.02-0.06-0.04c-0.16-0.1-0.32-0.2-0.48-0.3
			c-0.05-0.03-0.11-0.07-0.16-0.11c-0.12-0.08-0.24-0.17-0.37-0.25c-0.05-0.03-0.1-0.07-0.15-0.11c-0.22-0.16-0.44-0.33-0.66-0.5
			c-0.05-0.04-0.1-0.08-0.15-0.12c-0.1-0.08-0.21-0.17-0.31-0.26c-0.04-0.04-0.08-0.07-0.12-0.11c-0.08-0.07-0.15-0.14-0.23-0.21
			c-0.06-0.06-0.13-0.12-0.19-0.18c0.78-0.38,1.62-0.71,2.53-1c0.29,0.76,0.62,1.49,0.98,2.17c0.38,0.72,0.79,1.37,1.22,1.96
			C21.87,43.25,21.82,43.23,21.78,43.21z M26.96,44.35c-1.51-0.5-2.95-1.94-4.13-4.17c-0.28-0.52-0.53-1.08-0.77-1.66
			c1.56-0.33,3.2-0.53,4.9-0.6V44.35z M26.96,35.51c-1.96,0.07-3.86,0.31-5.67,0.71c-0.54-1.95-0.86-4.11-0.95-6.36h6.62V35.51z
			 M29.38,19.43V13c1.51,0.5,2.95,1.94,4.13,4.17c0.28,0.52,0.53,1.08,0.77,1.66C32.71,19.16,31.07,19.36,29.38,19.43z M35.64,16.04
			c-0.38-0.72-0.79-1.37-1.22-1.96c0.05,0.02,0.1,0.04,0.14,0.06c0.02,0.01,0.05,0.02,0.07,0.03c0.02,0.01,0.05,0.02,0.07,0.03
			c0.05,0.02,0.1,0.04,0.14,0.07c0.08,0.04,0.16,0.07,0.23,0.11c0.03,0.01,0.05,0.03,0.08,0.04c0.08,0.04,0.17,0.08,0.25,0.12
			c0.08,0.04,0.16,0.08,0.24,0.13c0.07,0.04,0.13,0.07,0.2,0.11c0.07,0.04,0.15,0.08,0.22,0.12c0.07,0.04,0.14,0.08,0.2,0.12
			c0.02,0.01,0.04,0.02,0.06,0.04c0.16,0.1,0.32,0.2,0.48,0.3c0.05,0.03,0.11,0.07,0.16,0.11c0.12,0.08,0.24,0.17,0.37,0.25
			c0.05,0.03,0.1,0.07,0.15,0.11c0.22,0.16,0.44,0.33,0.66,0.5c0.05,0.04,0.1,0.08,0.15,0.12c0.1,0.08,0.21,0.17,0.31,0.26
			c0.04,0.04,0.08,0.07,0.12,0.11c0.08,0.07,0.15,0.14,0.23,0.21c0.07,0.06,0.13,0.12,0.19,0.18c-0.78,0.38-1.62,0.71-2.53,1
			C36.33,17.45,36,16.72,35.64,16.04z M38.41,27.49c-0.09-2.46-0.44-4.83-1.04-6.99c1.25-0.4,2.4-0.88,3.44-1.43
			c1.86,2.44,2.97,5.36,3.2,8.42H38.41z"/>
	</g>
	<g>
		<path fill="#FFFFFF" d="M43.83,49.16c-0.66,0-0.99-0.35-1.12-0.56l-2.59-4.02l-4.12,2.58c-0.29,0.17-0.6,0.26-0.92,0.26
			c-0.9,0-1.65-0.67-1.74-1.57l-1.85-17.9c-0.05-0.5,0.1-0.98,0.44-1.35c0.33-0.37,0.81-0.58,1.3-0.58c0.34,0,0.67,0.1,0.96,0.29
			l15.09,9.95c0.5,0.33,0.8,0.89,0.79,1.5s-0.33,1.15-0.85,1.46l-4.1,2.36l2.46,3.83c0.29,0.45,0.3,1.01,0.02,1.54
			C47.01,48.05,44.91,49.16,43.83,49.16L43.83,49.16z"/>
		<path fill="#E11A14" d="M33.23,27.03c0.14,0,0.28,0.04,0.41,0.13l15.09,9.95c0.46,0.3,0.45,0.98-0.03,1.27l-5,2.87l3.03,4.72
			c0.5,0.77-2,2.21-2.91,2.21c-0.14,0-0.24-0.03-0.29-0.11l-3.12-4.85l-4.96,3.11c-0.12,0.07-0.25,0.11-0.38,0.11
			c-0.36,0-0.7-0.27-0.75-0.67l-1.85-17.9C32.44,27.38,32.82,27.03,33.23,27.03 M33.23,25.03c-0.78,0-1.52,0.33-2.05,0.91
			c-0.52,0.57-0.77,1.35-0.69,2.12l1.85,17.9c0.14,1.41,1.32,2.47,2.73,2.47c0.5,0,0.98-0.14,1.41-0.39l3.32-2.08l2.05,3.18
			c0.43,0.66,1.15,1.02,1.97,1.02c1.4,0,3.87-1.29,4.65-2.73c0.46-0.85,0.43-1.81-0.07-2.57l-1.89-2.93l3.18-1.83
			c0.85-0.51,1.35-1.37,1.37-2.32c0.02-0.95-0.44-1.83-1.23-2.35l-15.09-9.95C34.29,25.19,33.77,25.03,33.23,25.03L33.23,25.03z"/>
	</g>
</g>
</svg>
