<?xml version="1.0" encoding="utf-8"?>
<!-- Generator: Adobe Illustrator 27.8.0, SVG Export Plug-In . SVG Version: 6.00 Build 0)  -->
<svg version="1.1" xmlns="http://www.w3.org/2000/svg" xmlns:xlink="http://www.w3.org/1999/xlink" x="0px" y="0px" width="56.69px"
	 height="56.69px" viewBox="0 0 56.69 56.69" enable-background="new 0 0 56.69 56.69" xml:space="preserve">
<g id="Calque_4">
	<circle fill="#E11A14" cx="28.35" cy="28.35" r="28.35"/>
</g>
<g id="Calque_3">
	<g>
		<defs>
			<circle id="SVGID_1_" cx="28.35" cy="28.35" r="28.35"/>
		</defs>
		<clipPath id="SVGID_00000090277016974284727120000014665727646811074469_">
			<use xlink:href="#SVGID_1_"  overflow="visible"/>
		</clipPath>
		<g clip-path="url(#SVGID_00000090277016974284727120000014665727646811074469_)">
			<polygon fill="#EF8563" points="53.72,39.12 52.48,40.18 51.29,39.74 51.03,41.55 50.27,41.32 50.14,42 49.22,42.29 48.12,41.47 
				47.65,41.62 47.46,44.18 46.11,44.77 43.37,44.41 42.89,43.59 42.15,44.26 41.52,44.1 41.15,44.76 40.73,44.74 40.15,45.69 
				40.72,46.79 41.71,46.81 42.33,47.97 42.23,48.8 40.93,50.19 43.22,51.89 41.82,52.47 39.95,52.81 40.12,54.32 40.94,54.16 
				42.18,55.49 43.16,55.6 44.26,55.08 44.89,55.2 47.61,56.1 49.84,55.26 52.24,55.98 51.58,53.52 50.93,53.05 50.63,51.83 
				50.69,50.79 50.79,49.07 50.47,48.38 50.75,48.02 51.3,48.92 52.05,47.52 53.2,46.56 54.19,46.57 55.14,46.53 56.05,45.94 
				56.41,45.38 58.89,44.47 59.88,44.93 60.59,44.41 61.75,43.75 61.6,42.89 63.01,42.25 63.18,41.18 64.83,40.17 64.79,38.83 
				63.96,37.79 63.52,36.45 62.47,35.59 60.9,35.46 60.04,36.01 59.13,35.71 58.99,34.36 58.28,32.69 57.56,32.46 57.47,31.06 
				56.7,30.87 56.05,29.56 54.54,30.19 53.82,28.86 53.19,29.88 51.95,29.4 51.92,30.59 51.21,31.6 51.89,33.06 51.92,35.4 
				52.65,36.33 54.18,37.39 53.23,37.93 53.9,38.55 			"/>
			<g>
				<g>
					<polyline fill="#EF8563" points="45.72,31.86 45.17,31.07 44.28,31.02 43.73,28.42 40.88,27.71 40.4,27.16 39.05,27.62 
						38.89,29.07 37.61,30.72 35.81,31.95 35.35,32.27 36.15,34 34.93,33.81 34.54,34.64 35.19,35.31 35.17,35.95 33.29,37.42 
						32.36,37.27 31.06,37.29 31.06,37.29 29.93,37.37 28.41,37.52 27.98,37.87 26.98,37.51 26.26,38.12 26.51,39.44 25.34,40.15 
						25.33,41.15 26.92,41.52 27.19,42.2 26.61,42.53 26.85,44.39 25.96,43.94 25.67,44.71 26.36,45.18 25.01,47.06 24.22,49.26 
						25.59,50.75 26.04,50.26 27.03,50.72 30.88,50.9 31.27,50.5 31.77,50.95 32.88,49.88 33.57,49.96 36.87,51.07 37.34,52.12 
						38.68,52.12 39.76,52.24 39.95,52.81 41.82,52.47 43.22,51.89 40.93,50.19 42.23,48.8 42.33,47.97 41.71,46.81 40.72,46.79 
						40.15,45.69 40.73,44.74 41.15,44.76 41.52,44.1 42.15,44.26 42.89,43.59 43.37,44.41 46.11,44.77 47.46,44.18 47.65,41.62 
						48.12,41.47 49.22,42.29 50.14,42 50.27,41.32 51.03,41.55 51.29,39.74 52.48,40.18 53.72,39.12 53.9,38.55 53.23,37.93 
						54.18,37.39 52.65,36.33 51.92,35.4 51.89,33.06 51.21,31.6 49.44,28.77 48,30.6 45.99,32.15 					"/>
				</g>
			</g>
			<polygon fill="#EF8563" points="65.56,15.59 66.13,12.73 67.95,12.39 68.66,13.61 69.41,13.55 70.01,14.85 70.83,14.15 
				72.04,14.93 74.36,13.7 74.72,14.89 73.56,16.79 75.78,16.1 76.11,14.84 76.54,14.15 77.19,14.52 77.79,14.09 78.35,14.35 
				78.9,13.87 79.86,14.17 79.46,16.91 81.16,18.04 81.52,19.32 79.8,20.87 81.85,23.43 82.05,25.14 78.44,27.71 75.99,27.28 
				76.3,29.5 74.67,30.76 73.97,30.43 73.16,31.63 72.72,32.28 71.21,32.45 70.85,33.85 70.1,34.41 71.44,37.04 71.55,37.8 
				70.99,38.38 70.29,38.45 68.72,36.54 67.84,36.79 66.97,36.15 66.12,36.2 65.77,35.81 66.38,34.79 65.73,34.42 65.24,34.81 
				65.15,35.59 63.55,35.27 63.52,36.45 62.47,35.59 60.9,35.46 60.04,36.01 59.13,35.71 58.99,34.36 58.28,32.69 57.56,32.46 
				57.47,31.06 58.36,30.71 58.74,29.91 60.29,29.39 60.75,28.4 61.54,27.94 62.28,26.29 60.58,24.56 58.29,24.25 58.44,22.88 
				56.87,20.97 56.53,18.25 57.37,17.85 57.11,15.74 58.24,15.37 58.5,16.14 59.57,15.52 61.71,15.86 62.35,14.99 64.36,14.76 
				64.81,15.66 			"/>
			<polygon fill="#EF8563" points="56.53,18.25 57.37,17.85 57.11,15.74 58.24,15.37 58.5,16.14 59.57,15.52 59.19,12.65 
				58.25,12.24 57.21,10.39 55.74,10.22 55.89,11.13 54.87,11.37 54.76,10.61 53.03,9.62 49.03,10.31 48.9,11.49 46.28,13.23 
				46.25,14.37 47.7,15.13 47.92,15.79 48.52,17.95 46.93,19.31 47.4,19.61 47.7,21.33 47.46,22.54 47.82,23.33 48.18,24.11 
				47.61,24.74 46.74,23.45 46.02,24.76 44.63,25.65 43.73,28.42 44.28,31.02 45.17,31.07 45.72,31.86 45.99,32.15 48,30.6 
				49.44,28.77 51.21,31.6 51.92,30.59 51.95,29.4 53.19,29.88 53.82,28.86 54.54,30.19 56.05,29.56 56.7,30.87 57.47,31.06 
				58.36,30.71 58.74,29.91 60.29,29.39 60.75,28.4 61.54,27.94 62.28,26.29 60.58,24.56 58.29,24.25 58.44,22.88 56.87,20.97 			
				"/>
			<polygon fill="#EF8563" points="44.78,-6.63 44.56,-8.15 43.79,-8.45 41.98,-10.77 42.54,-11.8 41.72,-13.63 40.86,-13.63 
				39.68,-12.02 37.98,-11.67 36.11,-11.6 36.57,-9.89 37.1,-10.18 37.76,-8.17 36.48,-7.37 36.08,-5.92 36.58,-5.31 36.3,-4.46 
				35.87,-2.78 35.03,-1.03 33.81,-0.38 32.74,-0.55 32.78,0 32.1,0.32 31.16,1.16 30.28,3.69 30.48,4.96 31.31,5.1 31.92,6.71 
				33.75,6.81 34.04,6.45 34.7,6.72 34.59,8.2 35.99,9.79 38.12,12.96 38.97,12.86 40.2,13.39 41.3,13.37 42.32,12.69 45.55,13.1 
				45.73,12.82 46.28,13.23 48.9,11.49 49.03,10.31 53.03,9.62 52.67,4.87 51.02,1.9 51.8,0.75 50.92,-0.69 52.55,-2.89 
				52.43,-4.49 51.86,-5.15 50.02,-5.5 50.01,-4.11 49.27,-4.99 48.17,-4.97 48.1,-7.01 46.74,-6.81 46.32,-7.46 45.99,-6.75 			"/>
			<polygon fill="#EF8563" points="60.15,-2.93 58.76,-2.54 57.11,-4.56 56.23,-4.71 55.96,-5.83 55.36,-6.69 54.64,-6.87 
				52.49,-7.16 51.86,-5.15 52.43,-4.49 52.55,-2.89 50.92,-0.69 51.8,0.75 51.02,1.9 52.67,4.87 53.03,9.62 54.76,10.61 
				54.87,11.37 55.89,11.13 55.74,10.22 57.21,10.39 58.25,12.24 59.19,12.65 59.57,15.52 61.71,15.86 62.35,14.99 64.36,14.76 
				64.81,15.66 65.56,15.59 66.13,12.73 67.95,12.39 68.66,13.61 69.41,13.55 69.06,10.03 69.73,9.36 68.63,8.15 68.79,7.17 
				70.04,6.22 70.31,4.22 69.33,2.77 70.13,1.87 69.65,1.27 68.14,1.49 66.11,0.52 66.71,-0.4 66.34,-1.04 65.69,-1.06 64.16,-2.87 
				62.96,-2.81 62.75,-2.24 60.88,-2.35 			"/>
			<g>
				<polygon fill="#FFFFFF" points="28.21,24.8 29.45,24.79 30.67,24.08 30.65,22.89 32.23,21.68 32.33,20.74 33.69,20.15 
					35.05,16.83 34.63,15.79 35.51,14.1 36.97,13.87 38.12,12.96 35.99,9.79 34.59,8.2 34.7,6.72 34.04,6.45 33.75,6.81 31.92,6.71 
					31.31,5.1 30.48,4.96 29.69,5.36 29.31,4.82 28.73,5.5 28.21,4.9 27.59,5.13 26.76,4.94 24.75,6.1 23.79,5.88 24.55,7.42 
					25.18,12.4 24.16,12.54 23.59,12.62 23.02,13.1 21.16,12.83 21.08,13.58 20.49,14.01 21.1,14.27 21.62,15.87 21.47,16.3 
					20.94,15.74 21.14,17.01 20.9,17.43 20.89,17.92 19.96,18.21 19.9,18.8 20.75,19.39 21.66,20.34 22.35,20.81 22.92,21.97 
					23.41,23.32 24.75,22.87 26.2,24.99 27.37,25.6 				"/>
				<polygon fill="#FFFFFF" points="37.97,22.72 37.64,24.71 38.14,25.18 37.54,25.61 39.05,27.62 40.4,27.16 40.88,27.71 
					43.73,28.42 44.63,25.65 46.02,24.76 46.74,23.45 47.61,24.74 48.18,24.11 47.82,23.33 47.46,22.54 47.7,21.33 47.4,19.61 
					46.93,19.31 48.52,17.95 47.92,15.79 47.7,15.13 46.25,14.37 46.28,13.23 45.73,12.82 45.55,13.1 42.32,12.69 41.3,13.37 
					40.2,13.39 38.97,12.86 38.12,12.96 36.97,13.87 35.51,14.1 34.63,15.79 35.05,16.83 33.69,20.15 34.4,21.32 35.46,21.19 
					37.04,22.56 37.57,22.23 				"/>
				<path fill="#FFFFFF" d="M27.98,37.87l-1-0.36l-0.71,0.61l0.25,1.32l-1.17,0.71l-0.01,0.99l1.6,0.38l0.27,0.68l-0.58,0.33
					l0.24,1.86l-0.89-0.45l-0.28,0.76l0.69,0.47l-1.35,1.88l-0.79,2.19l-0.68-0.13c0,0-1.15,0.07-1.49-0.02
					c-0.34-0.09-0.28-0.58-0.36-0.74c-0.08-0.16-0.66-0.77-0.66-0.77s-0.65,0.08-0.93-0.1c-0.28-0.18-0.84,0.4-1.03,0.33
					c-0.19-0.07-0.23-0.57-0.31-0.73c-0.08-0.16-0.35-0.44-0.58-0.61c-0.23-0.17-0.52-0.26-0.66-0.32
					c-0.14-0.07-0.63-0.12-0.63-0.12l-0.69,0.42l-0.69-0.08l-0.35-0.39l0.66-1.46c0,0-0.88-0.99-1.01-1.16
					c-0.13-0.16-0.56-0.36-0.56-0.36l-0.54-0.46l-0.34-0.53l1.25-0.11l0.51-0.38l0.22-0.38l2.15-4.97l0.18-1.57l0.29-3.44l0.69-0.86
					l1.58,0.03l0.18-0.28l-0.33-0.14l0.29-0.41l-0.92-0.65l-0.87,1.09l0.38-2.54l0.71-3.64l0.36-2.74l0.74-0.36l2.33,4.35l0.41,0.87
					l0.57,0.26l-0.23-0.57l-0.34-0.98l-0.02-0.75l-0.09-0.56l1.34-0.44l1.45,2.12l1.17,0.6l0.83-0.79l1.24-0.02l1.22-0.71
					l-0.01-1.19l1.58-1.21l0.1-0.93l1.36-0.59l0.71,1.17l1.06-0.13l1.58,1.37l0.53-0.34l0.39,0.49l-0.32,2l0.49,0.46l-0.59,0.43
					l1.51,2.01l-0.16,1.46l-1.28,1.64l-1.8,1.24l-0.46,0.32l0.8,1.73l-1.22-0.19l-0.39,0.82l0.64,0.67l-0.02,0.64l-1.88,1.48
					l-0.93-0.15l-1.3,0.02l-1.13,0.08l-1.51,0.15L27.98,37.87z"/>
			</g>
			<g>
				<g>
					<polygon fill="#EF8563" points="23.79,5.88 24.55,7.42 25.18,12.4 24.15,12.54 23.59,12.62 23.02,13.1 21.16,12.83 
						20.58,12.73 18.71,11.72 18.59,11.01 15.95,10.62 15.33,7.37 14.34,6.47 14.92,6.09 15.29,5.06 15.29,5.06 15.21,3.99 
						14.08,3.41 14.58,2.52 14.76,1.8 14.97,1.23 13.67,1.78 12.87,1.44 12.26,1.97 11.85,1.67 12.1,1.2 11.9,0.29 12.63,0.42 
						12.73,-0.41 13.86,-0.33 15.05,-1.19 17.96,-1.96 18.45,-3.24 19.52,-3.02 20.2,-3.79 21.85,-2.96 22.21,-3.91 23.5,-5.31 
						22.77,-6.78 23.75,-10.09 25.41,-10.4 26.18,-9.72 29.73,-10.46 30.52,-8.64 32.42,-9.17 33.49,-9.05 33.86,-7.67 35.35,-6.73 
						36.08,-5.92 36.58,-5.31 36.3,-4.46 35.87,-2.78 35.03,-1.03 33.81,-0.38 32.74,-0.55 32.78,0 32.09,0.32 31.16,1.16 
						30.28,3.69 30.48,4.96 29.69,5.36 29.31,4.82 28.73,5.5 28.21,4.9 27.59,5.13 26.76,4.94 24.75,6.1 					"/>
				</g>
			</g>
			<polygon fill="#EF8563" points="59.76,-17.87 59.6,-20.55 60.54,-20.99 60.47,-21.7 61.64,-23.3 64.53,-25.61 65.83,-25.66 
				65.26,-24.14 66.5,-21.52 68.07,-21.34 69.73,-19.37 69.15,-19.03 67.39,-19.73 66.65,-15.35 66.57,-14.16 67.24,-13.49 
				66.3,-12.21 66.79,-11.71 66.54,-9.9 67.4,-9.16 67.78,-8.12 69.68,-7.41 69.76,-6.36 70.96,-5.09 71.57,-5.22 71.82,-4.84 
				70.97,-3.45 71.75,-3.26 72.23,-2.26 73.03,-2.27 73.05,-1.63 71.24,-0.49 71.92,0.08 71.45,0.67 70.1,0.37 69.65,1.27 
				68.14,1.49 66.11,0.52 66.71,-0.4 66.34,-1.04 65.69,-1.06 64.16,-2.87 62.96,-2.81 62.75,-2.24 60.88,-2.35 60.15,-2.93 
				58.76,-2.54 57.11,-4.56 56.23,-4.71 55.96,-5.83 55.36,-6.69 54.64,-6.87 55.4,-9.27 54.88,-11.26 55.7,-11.51 56.72,-13.53 
				56.27,-14.38 57.19,-15.47 56.85,-16 57.32,-17.53 59.82,-17.25 			"/>
		</g>
	</g>
</g>
</svg>
