<?xml version="1.0" encoding="utf-8"?>
<!-- Generator: Adobe Illustrator 27.8.0, SVG Export Plug-In . SVG Version: 6.00 Build 0)  -->
<svg version="1.1" xmlns="http://www.w3.org/2000/svg" xmlns:xlink="http://www.w3.org/1999/xlink" x="0px" y="0px" width="56.69px"
	 height="56.69px" viewBox="0 0 56.69 56.69" enable-background="new 0 0 56.69 56.69" xml:space="preserve">
<g id="Calque_4">
	<circle fill="#E11A14" cx="28.35" cy="28.35" r="28.35"/>
</g>
<g id="Calque_3_-_copie">
	<g>
		<defs>
			<circle id="SVGID_1_" cx="28.35" cy="28.35" r="28.35"/>
		</defs>
		<clipPath id="SVGID_00000022549899509904702680000014858839655056588161_">
			<use xlink:href="#SVGID_1_"  overflow="visible"/>
		</clipPath>
		<g clip-path="url(#SVGID_00000022549899509904702680000014858839655056588161_)">
			<polygon fill="#EF8563" points="63,23.15 61.34,19.89 62.28,19.2 62.72,17.47 64.59,17.25 65.14,16.45 65.14,16.45 66.13,14.97 
				67.01,15.38 69.02,13.82 68.63,11.08 71.66,11.6 74.14,14.7 75.42,14.79 76.09,16.46 74.79,18.21 74.89,21.11 77.99,24.09 
				80.25,24.16 81.91,26.37 80.29,28.22 81,29.52 77.35,31.45 77.1,33.14 75.81,32.07 75.04,32.9 74.36,34.05 72.65,33.43 
				73.15,34.41 71.62,35.46 73.26,35.59 73.09,36.55 72.33,37.32 71.69,36.45 69.96,37.18 70.16,38.06 69.44,37.98 68.74,37.1 
				67.77,37.49 67.5,38.31 66.76,37.8 64.74,37.21 64.9,37.96 64.13,38.24 62.97,38.24 62.94,37.37 60.83,36.46 59.9,37.15 
				58.64,36.34 59.32,35.74 58.96,35.15 56.12,35.26 56.09,34.46 55.28,34 54.34,34.75 52.64,34.62 51.72,33.48 49.84,33.33 
				49.59,32.25 51.03,31.43 50.84,30.37 52.59,29.59 52.8,28.26 54.84,27.02 54.78,25.35 53.76,24.07 53.21,22.42 53.25,20.95 
				55.23,21.35 55.34,20.38 55.95,19.9 56.75,20.36 56,21.62 56.43,22.1 57.48,22.04 58.56,22.83 59.64,22.52 61.58,24.89 
				62.45,24.8 63.14,24.08 			"/>
			<polygon fill="#FFFFFF" points="41.1,25.72 39.56,27.02 38.09,26.48 37.78,28.72 36.83,28.43 36.67,29.27 35.53,29.63 
				34.17,28.62 33.59,28.8 33.36,31.97 31.68,32.7 28.3,32.26 27.71,31.24 26.79,32.07 26.01,31.88 25.55,32.68 25.03,32.66 
				24.32,33.83 25.02,35.2 26.25,35.22 27.01,36.65 26.89,37.68 25.29,39.4 28.12,41.5 26.38,42.23 24.07,42.64 24.29,44.51 
				25.29,44.31 26.82,45.96 28.03,46.09 29.39,45.45 30.18,45.6 33.55,46.71 36.3,45.67 39.27,46.56 38.45,43.52 37.65,42.94 
				37.27,41.42 37.35,40.15 37.47,38.01 37.07,37.17 37.43,36.72 38.1,37.84 39.03,36.1 40.46,34.91 41.68,34.93 42.85,34.87 
				43.98,34.14 44.42,33.45 47.49,32.33 48.72,32.89 49.59,32.25 51.03,31.44 50.84,30.37 52.59,29.59 52.8,28.26 54.84,27.02 
				54.78,25.35 53.76,24.07 53.21,22.42 51.92,21.35 49.97,21.19 48.91,21.87 47.79,21.5 47.61,19.82 46.74,17.76 45.85,17.48 
				45.74,15.75 44.78,15.52 43.98,13.89 42.12,14.67 41.22,13.03 40.44,14.29 38.91,13.69 38.87,15.16 37.99,16.41 38.83,18.22 
				38.88,21.11 39.78,22.27 41.67,23.57 40.49,24.24 41.32,25.01 			"/>
			<g>
				<polyline fill="#FFFFFF" points="31.2,16.74 30.52,15.76 29.42,15.7 28.74,12.49 25.22,11.6 24.62,10.92 22.96,11.49 
					22.76,13.29 21.18,15.32 18.96,16.85 18.39,17.25 19.38,19.38 17.87,19.15 17.39,20.17 18.18,21 18.15,21.79 15.83,23.62 
					14.69,23.43 13.08,23.45 13.08,23.45 11.68,23.55 9.81,23.74 9.27,24.17 8.03,23.72 7.15,24.48 7.45,26.11 6.01,26.99 
					5.99,28.22 7.96,28.68 8.3,29.52 7.58,29.93 7.87,32.23 6.77,31.68 6.42,32.62 7.27,33.21 5.6,35.54 4.62,38.25 6.31,40.1 
					6.87,39.48 8.1,40.05 12.86,40.28 13.34,39.78 13.96,40.34 15.33,39.02 16.18,39.12 20.26,40.5 20.85,41.79 22.5,41.79 
					23.84,41.94 24.07,42.64 26.38,42.23 28.12,41.5 25.29,39.4 26.89,37.68 27.01,36.65 26.25,35.22 25.02,35.2 24.32,33.83 
					25.03,32.66 25.55,32.68 26.01,31.88 26.79,32.07 27.71,31.24 28.3,32.26 31.68,32.7 33.36,31.97 33.59,28.8 34.17,28.62 
					35.53,29.63 36.67,29.27 36.83,28.43 37.78,28.72 38.09,26.48 39.56,27.02 41.1,25.72 41.32,25.01 40.49,24.24 41.67,23.57 
					39.78,22.27 38.88,21.11 38.83,18.22 37.99,16.41 35.81,12.92 34.02,15.18 31.53,17.1 				"/>
			</g>
			<polygon fill="#EF8563" points="55.74,-3.38 56.44,-6.92 58.7,-7.34 59.57,-5.83 60.5,-5.91 61.24,-4.29 62.26,-5.16 
				63.74,-4.19 66.61,-5.71 67.06,-4.25 65.63,-1.9 68.37,-2.75 68.79,-4.3 69.31,-5.16 70.12,-4.7 70.85,-5.24 71.55,-4.91 
				72.23,-5.51 73.42,-5.13 72.92,-1.75 75.03,-0.35 75.47,1.23 73.35,3.14 75.88,6.31 76.13,8.42 71.66,11.6 68.63,11.08 
				69.02,13.82 67.01,15.38 66.13,14.97 65.14,16.45 64.59,17.25 62.72,17.47 62.28,19.2 61.34,19.89 63,23.15 63.14,24.08 
				62.45,24.8 61.58,24.89 59.64,22.52 58.56,22.83 57.48,22.04 56.43,22.1 56,21.62 56.75,20.36 55.95,19.9 55.34,20.38 
				55.23,21.35 53.25,20.95 53.21,22.42 51.92,21.35 49.97,21.19 48.91,21.87 47.79,21.5 47.61,19.82 46.74,17.76 45.85,17.48 
				45.74,15.75 46.83,15.32 47.31,14.33 49.22,13.69 49.79,12.46 50.77,11.9 51.67,9.85 49.58,7.71 46.74,7.33 46.93,5.64 
				44.99,3.27 44.57,-0.09 45.61,-0.59 45.29,-3.2 46.69,-3.65 47.01,-2.7 48.32,-3.47 50.98,-3.05 51.77,-4.13 54.26,-4.4 
				54.81,-3.3 			"/>
			<polygon fill="#EF8563" points="44.57,-0.09 45.61,-0.59 45.29,-3.2 46.69,-3.65 47.01,-2.7 48.32,-3.47 47.86,-7.02 
				46.69,-7.52 45.42,-9.81 43.6,-10.01 43.78,-8.89 42.52,-8.6 42.38,-9.54 40.25,-10.76 35.3,-9.9 35.14,-8.45 31.89,-6.3 
				31.86,-4.89 33.65,-3.95 33.93,-3.14 34.67,-0.46 32.71,1.22 33.28,1.59 33.65,3.72 33.36,5.22 33.8,6.19 34.25,7.16 33.55,7.94 
				32.47,6.34 31.58,7.96 29.86,9.06 28.74,12.49 29.42,15.7 30.52,15.76 31.2,16.74 31.53,17.1 34.02,15.18 35.81,12.92 
				37.99,16.41 38.87,15.16 38.91,13.69 40.44,14.29 41.22,13.03 42.12,14.67 43.98,13.89 44.78,15.52 45.74,15.75 46.83,15.32 
				47.31,14.33 49.22,13.69 49.79,12.46 50.77,11.9 51.67,9.85 49.58,7.71 46.74,7.33 46.93,5.64 44.99,3.27 			"/>
			<g>
				<g>
					<polygon fill="#EF8563" points="9.55,8.01 11.08,7.99 12.59,7.12 12.58,5.64 14.52,4.14 14.65,2.99 16.33,2.26 18.02,-1.84 
						17.49,-3.13 18.58,-5.22 20.39,-5.5 21.81,-6.63 19.18,-10.55 17.44,-12.52 17.58,-14.35 16.76,-14.68 16.4,-14.23 
						14.15,-14.36 13.39,-16.35 12.37,-16.53 11.39,-16.02 10.91,-16.69 10.2,-15.85 9.55,-16.6 8.78,-16.32 7.77,-16.55 
						5.27,-15.12 4.09,-15.39 5.03,-13.49 5.81,-7.32 4.54,-7.15 3.85,-7.05 3.14,-6.46 0.84,-6.8 0.74,-5.87 0,-5.34 0.77,-5.01 
						1.4,-3.03 1.22,-2.5 0.56,-3.19 0.82,-1.63 0.51,-1.11 0.5,-0.5 -0.64,-0.14 -0.72,0.59 0.33,1.32 1.46,2.49 2.31,3.08 
						3.01,4.51 3.62,6.17 5.28,5.62 7.07,8.25 8.52,8.99 					"/>
					<polygon fill="#EF8563" points="21.62,5.43 21.22,7.9 21.83,8.47 21.09,9.01 22.96,11.49 24.62,10.92 25.22,11.6 28.74,12.49 
						29.86,9.06 31.58,7.96 32.47,6.34 33.55,7.94 34.25,7.16 33.8,6.19 33.36,5.22 33.65,3.72 33.28,1.59 32.71,1.22 34.67,-0.46 
						33.93,-3.14 33.65,-3.95 31.86,-4.89 31.89,-6.3 31.21,-6.8 30.99,-6.46 27,-6.97 25.74,-6.13 24.39,-6.1 22.86,-6.76 
						21.81,-6.63 20.39,-5.5 18.58,-5.22 17.49,-3.13 18.02,-1.84 16.33,2.26 17.21,3.71 18.52,3.55 20.47,5.24 21.13,4.83 					"/>
					<path fill="#EF8563" d="M9.27,24.17l-1.24-0.45l-0.88,0.76l0.31,1.63l-1.45,0.88l-0.02,1.23l1.97,0.47l0.34,0.84l-0.72,0.41
						l0.29,2.3l-1.1-0.55l-0.35,0.94l0.85,0.59L5.6,35.54l-0.98,2.71l-0.84-0.16c0,0-1.42,0.09-1.84-0.02
						c-0.42-0.11-0.35-0.71-0.45-0.91c-0.1-0.2-0.81-0.95-0.81-0.95s-0.81,0.09-1.15-0.13c-0.34-0.22-1.04,0.5-1.27,0.41
						c-0.24-0.09-0.29-0.71-0.39-0.9c-0.1-0.2-0.43-0.54-0.71-0.76c-0.28-0.22-0.64-0.32-0.81-0.4c-0.17-0.08-0.78-0.15-0.78-0.15
						L-5.3,34.8l-0.85-0.1l-0.44-0.48l0.82-1.81c0,0-1.09-1.23-1.25-1.43c-0.16-0.2-0.69-0.45-0.69-0.45l-0.67-0.57l-0.42-0.66
						l1.55-0.13l0.63-0.47l0.27-0.47l2.65-6.14l0.22-1.94l0.36-4.25l0.86-1.07l1.96,0.04l0.22-0.34l-0.41-0.17l0.36-0.51l-1.14-0.8
						l-1.07,1.35l0.48-3.14l0.87-4.5l0.44-3.39l0.91-0.45L3.25,8.3l0.5,1.07l0.7,0.32L4.16,8.99L3.75,7.78L3.73,6.86L3.62,6.17
						l1.66-0.55l1.79,2.62l1.45,0.75l1.03-0.98l1.54-0.02l1.51-0.87l-0.02-1.47l1.95-1.5l0.13-1.15l1.68-0.73l0.88,1.45l1.31-0.16
						l1.96,1.69l0.66-0.42l0.48,0.61l-0.4,2.47l0.61,0.57l-0.73,0.53l1.87,2.48l-0.2,1.8l-1.58,2.03l-2.23,1.53l-0.57,0.4l0.99,2.14
						l-1.51-0.23l-0.48,1.02l0.8,0.83l-0.03,0.79l-2.32,1.83l-1.14-0.19l-1.61,0.02l-1.4,0.1l-1.87,0.18L9.27,24.17z"/>
				</g>
			</g>
		</g>
	</g>
</g>
</svg>
