<?xml version="1.0" encoding="UTF-8"?>
<svg xmlns="http://www.w3.org/2000/svg" version="1.1" viewBox="0 0 288.5669291 681.4488189">
  <g id="FOND">
    <line x1="144.2834646" y1="36.8503937" x2="144.2834646" y2="675.7795276" fill="none" stroke="#1d1d1b" stroke-miterlimit="10" stroke-width=".5"/>
  </g>
  <g id="TITRAILLE">
    <circle cx="22.5090185" cy="18.265048" r="15.5359301" fill="#d42e1a" stroke-width="0"/>
    <text transform="translate(41.6929695 28.8160158)" fill="#1d1d1b" font-family="UtopiaStd-Bold, &apos;Utopia Std&apos;" font-size="23" font-weight="700"><tspan x="0" y="-2">À l’agenda</tspan></text>
    <g>
      <path d="M11.0641915,14.5690241l3.956692,13.2684607c.4582791,1.5368035,2.0880661,2.4178523,3.6248696,1.9595732l11.3420464-3.3822299c1.5368035-.4582791,2.4178519-2.088066,1.9595728-3.6248695l-.174275-.5844177,1.3203527-.3937328c.7575794-.2259123,1.3317587-.7506829,1.5968408-1.4425485.2867268-.6983219.1842307-1.5162739-.2645874-2.2309517l-5.6337649-9.0914465c-.8004279-1.3404944-2.5862925-2.0335802-4.0365156-1.6011196l-.9523854.284004.3193365.5175906c.2718732.4374647.333749.9611211.1620914,1.4129986s-.5464684.7757763-1.0226613.9177783c-.8874498.26464-1.9036043-.1394374-2.3998858-.9342414l-.5437456-.8749297-2.9220918.8713759.3193357.5175909c.2718732.4374647.333749.9611211.1620914,1.4129986-.150012.4454227-.5464692.7757765-1.0226613.9177783-.865805.2581855-1.9036043-.1394374-2.378241-.940696l-.5437448-.87493-.9090946.2710945c-1.5368035.4582791-2.4178525,2.0880655-1.959575,3.6248697ZM32.5747975,20.1515872l-11.3420462,3.3822298c-.6926433.2065482-1.6309522-.173602-2.0387619-.8298l-4.4361549-7.2094357,13.4632676-4.0147839,4.6734738,7.6100648c.1640359.2339223.2133923.4784746.1287037.6687177-.0782335.2118895-.2817757.3197255-.4549367.3713626l.0064545.0216448ZM13.6303441,17.0092988l4.062901,6.5900731c.8004274,1.3404957,2.5862926,2.0335806,4.0365153,1.6011201l8.3333725-2.4850349.174275.5844177c.1807295.6060625-.1686517,1.2523577-.7747151,1.4330875l-11.3203999,3.3757748c-.6060625.1807295-1.2523574-.1686505-1.4330874-.7747147l-3.0788614-10.3247237Z" fill="#fff" stroke="#d42e1a" stroke-miterlimit="10" stroke-width=".25"/>
      <path d="M23.4228872,8.6680547l-.6451287-1.0568266c-.2847825-.480755-.9269031-.7371013-1.4463864-.5821899-.4978377.1484566-.6782308.6500787-.3934491,1.130834l.6451278,1.0568266c.2847826.4807551.9269031.7371013,1.4463864.5821899.4978377-.1484566.6717771-.6717239.39345-1.1308341Z" fill="#fff" stroke="#d42e1a" stroke-miterlimit="10" stroke-width=".25"/>
      <path d="M17.0375755,10.5721724l-.6667743-1.0503718c-.2847817-.4807553-.9269031-.7371013-1.4463864-.5821899-.4978369.1484563-.6782308.6500787-.3934491,1.130834l.6451278,1.0568266c.2847817.4807554.9269031.7371013,1.4463864.5821899s.6934227-.6781787.4150957-1.1372888Z" fill="#fff" stroke="#d42e1a" stroke-miterlimit="10" stroke-width=".25"/>
      <path d="M23.2721152,18.7537987l.8285273,1.3556849c.0820181.1169611.2658074.1800042.3956778.1412765l2.0129964-.6002811c.1298704-.0387277.1841781-.172772.1021599-.2897331l-.8285273-1.3556849c-.0820181-.1169611-.2658074-.1800042-.3956778-.1412765l-2.0129964.6002811c-.1298704.0387277-.1841781.172772-.1021599.2897331Z" fill="#fff" stroke="#d42e1a" stroke-miterlimit="10" stroke-width=".25"/>
      <path d="M26.8219159,17.6952382l.8285273,1.3556849c.0820181.1169611.2658069.1800043.3956778.1412765l2.0129964-.6002811c.1298704-.0387277.1841781-.172772.1021599-.2897331l-.8285273-1.3556849c-.0820181-.1169611-.2658069-.1800043-.3956778-.1412765l-2.0129964.6002811c-.151516.0451825-.1841781.172772-.1021599.2897331Z" fill="#fff" stroke="#d42e1a" stroke-miterlimit="10" stroke-width=".25"/>
      <path d="M19.7223147,19.81236l.8285281,1.3556846c.0820173.1169613.2658074.1800042.3956778.1412765l2.0129964-.6002811c.1298704-.0387277.1841781-.172772.1021599-.2897331l-.8285276-1.3556857c-.0820181-.1169611-.2658074-.1800042-.3956778-.1412765l-2.0129964.6002811c-.1298704.0387277-.1841781.172772-.1021605.2897342Z" fill="#fff" stroke="#d42e1a" stroke-miterlimit="10" stroke-width=".25"/>
      <path d="M21.5265877,15.9038222l.8285273,1.3556849c.0820181.1169611.2658074.1800042.3956778.1412765l2.0129964-.6002811c.1298704-.0387277.1841781-.172772.1021599-.2897331l-.8285273-1.3556849c-.0820181-.1169611-.2658074-.1800042-.3956778-.1412765l-2.0129964.6002811c-.151516.0451825-.1841781.172772-.1021599.2897331Z" fill="#fff" stroke="#d42e1a" stroke-miterlimit="10" stroke-width=".25"/>
      <path d="M25.0547428,14.8517165l.8285273,1.3556849c.0820181.1169611.2658074.1800042.3956778.1412765l2.0129964-.6002811c.1298704-.0387277.1841781-.172772.1021599-.2897331l-.8285273-1.3556849c-.0820181-.1169611-.2658069-.1800043-.3956778-.1412765l-2.0129964.6002811c-.1298704.0387277-.1841781.172772-.1021599.2897331Z" fill="#fff" stroke="#d42e1a" stroke-miterlimit="10" stroke-width=".25"/>
      <path d="M21.3009583,17.59743l-.8285273-1.3556849c-.0820181-.1169611-.2658074-.1800042-.3956778-.1412765l-2.0129964.6002811c-.1298721.0387282-.1841781.172772-.1021608.2897333l.8285281,1.3556846c.0820173.1169613.2658074.1800042.3956778.1412765l2.0129964-.6002811c.151516-.0451825.1777235-.1944168.1021599-.2897331Z" fill="#fff" stroke="#d42e1a" stroke-miterlimit="10" stroke-width=".25"/>
    </g>
  </g>
</svg>