<?xml version="1.0" encoding="utf-8"?>
<!-- Generator: Adobe Illustrator 28.5.0, SVG Export Plug-In . SVG Version: 9.03 Build 54727)  -->
<svg version="1.1" id="TITRAILLE" xmlns="http://www.w3.org/2000/svg" xmlns:xlink="http://www.w3.org/1999/xlink" x="0px" y="0px"
   width="277.2283325px" height="559.8425293px" viewBox="0 0 277.2283325 559.8425293"
   enable-background="new 0 0 277.2283325 559.8425293" xml:space="preserve">
<g>
  <text transform="matrix(1 0 0 1 40.6984825 26.4942684)" font-size="20" fill="cmyk(0%, 0%, 0%, 100%)" >
    <tspan x="-2.5" y="0" font-family="utopiastdb;">À l’agenda</tspan>
    <tspan x="-31" y="21" font-family="utopiastdb;">de la semaine</tspan>
  </text>
</g>
<line fill="none" stroke="cmyk(0%, 0%, 0%, 100%);" stroke-width="0.5" stroke-miterlimit="10" x1="138.6141663" y1="1.559916" x2="138.6141663" y2="551.7628784"/>
<g>
  <g>
    
      <ellipse transform="matrix(0.9732489 -0.2297533 0.2297533 0.9732489 -3.4020171 4.3175387)" fill="cmyk(0%, 91%, 94%, 10%)" cx="16.8397007" cy="16.7679749" rx="15.535902" ry="15.5359364"/>
    <path fill="#FFFFFF" d="M15.6316385,16.100378l-0.8285275-1.3556843
      c-0.0820179-0.1169615-0.2658072-0.1800041-0.3956776-0.1412764l-2.0129967,0.6002808
      c-0.1298723,0.0387287-0.1841784,0.1727724-0.1021605,0.2897329l0.8285275,1.3556843
      c0.0820179,0.1169624,0.2658072,0.1800041,0.3956776,0.1412773l2.0129967-0.6002808
      C15.680994,16.3449287,15.707202,16.195694,15.6316385,16.100378z"/>
  </g>
  <g>
    <path fill="#FFFFFF" d="M5.3948712,13.0719728l3.9566922,13.2684603c0.4582787,1.5368042,2.0880661,2.4178524,3.6248693,1.9595737
      l11.3420467-3.3822308c1.5368023-0.4582787,2.4178524-2.0880661,1.9595718-3.6248684l-0.1742744-0.5844193l1.3203526-0.3937321
      c0.7575798-0.2259121,1.3317585-0.7506828,1.5968418-1.4425488c0.286726-0.6983223,0.1842289-1.5162735-0.2645874-2.2309513
      l-5.6337662-9.0914459c-0.8004265-1.3404946-2.5862923-2.0335803-4.0365143-1.6011195l-0.9523869,0.2840037l0.3193378,0.5175905
      c0.2718735,0.4374647,0.3337479,0.9611211,0.1620903,1.4129987s-0.5464687,0.7757759-1.0226612,0.917778
      c-0.8874493,0.2646408-1.9036036-0.1394367-2.3998852-0.9342413l-0.543746-0.8749294l-2.9220915,0.871376l0.3193359,0.5175905
      c0.2718725,0.4374647,0.3337488,0.9611216,0.1620913,1.4129992c-0.150012,0.4454222-0.5464697,0.7757759-1.0226612,0.917778
      c-0.8658056,0.2581854-1.9036045-0.1394377-2.3782415-0.9406958L8.2635412,9.1760082L7.3544464,9.4471025
      C5.8176427,9.9053822,4.936594,11.5351686,5.3948712,13.0719728z M26.9054775,18.6545353l-11.3420467,3.3822308
      c-0.6926432,0.2065468-1.6309519-0.1736031-2.0387611-0.8298016L9.0885143,13.99753l13.4632683-4.0147839l4.6734734,7.6100636
      c0.1640358,0.233923,0.2133923,0.4784756,0.1287041,0.6687183c-0.0782337,0.2118893-0.2817764,0.319725-0.454937,0.3713627
      L26.9054775,18.6545353z M7.9610238,15.5122471l4.062901,6.5900726c0.8004274,1.3404961,2.5862923,2.0335808,4.0365152,1.60112
      l8.3333721-2.4850349l0.1742764,0.5844193c0.1807289,0.6060619-0.1686535,1.2523575-0.7747154,1.4330864l-11.3204002,3.3757744
      c-0.6060629,0.1807308-1.2523575-0.1686497-1.4330873-0.7747135L7.9610238,15.5122471z"/>
    <path fill="#FFFFFF" d="M17.7535667,7.1710029l-0.6451283-1.0568266
      c-0.2847824-0.4807549-0.9269028-0.7371011-1.4463863-0.5821896c-0.497838,0.1484566-0.6782312,0.6500788-0.3934498,1.1308341
      l0.6451283,1.0568266C16.198513,8.2004023,16.8406334,8.456749,17.360117,8.301837
      C17.857954,8.1533804,18.0318947,7.6301131,17.7535667,7.1710029z"/>
    <path fill="#FFFFFF" d="M11.3682556,9.0751209l-0.6667747-1.0503721
      c-0.2847815-0.4807549-0.9269028-0.7371011-1.4463863-0.5821896C8.7572575,7.5910153,8.5768633,8.092638,8.8616457,8.5733929
      L9.506773,9.6302195c0.2847824,0.4807558,0.9269037,0.7371016,1.4463863,0.5821905
      C11.4726429,10.057498,11.6465826,9.5342312,11.3682556,9.0751209z"/>
    <path fill="#FFFFFF" d="M17.6027946,17.2567463l0.8285275,1.3556862c0.0820179,0.1169605,0.2658081,0.1800041,0.3956776,0.1412754
      l2.0129967-0.6002808c0.1298714-0.0387268,0.1841774-0.1727715,0.1021595-0.289732l-0.8285275-1.3556862
      c-0.0820179-0.1169605-0.2658062-0.1800041-0.3956776-0.1412754l-2.0129967,0.6002808
      C17.5750847,17.0057411,17.5207767,17.1397858,17.6027946,17.2567463z"/>
    <path fill="#FFFFFF" d="M21.1525955,16.1981869l0.8285275,1.3556843c0.0820179,0.1169624,0.2658062,0.1800041,0.3956776,0.1412773
      l2.0129967-0.6002808c0.1298714-0.0387287,0.1841774-0.1727734,0.1021595-0.2897339l-0.8285275-1.3556852
      c-0.0820179-0.1169605-0.2658062-0.1800041-0.3956776-0.1412764l-2.0129967,0.6002817
      C21.1032391,15.9536362,21.0705776,16.0812263,21.1525955,16.1981869z"/>
    <path fill="#FFFFFF" d="M14.0529947,18.3153076l0.8285284,1.3556862c0.0820169,0.1169605,0.2658072,0.1800041,0.3956776,0.1412754
      l2.0129967-0.6002808c0.1298695-0.0387268,0.1841774-0.1727715,0.1021595-0.2897339l-0.8285275-1.3556843
      c-0.0820179-0.1169624-0.2658081-0.1800041-0.3956776-0.1412773l-2.0129967,0.6002808
      C14.0252848,18.0643024,13.9709768,18.1983471,14.0529947,18.3153076z"/>
    <path fill="#FFFFFF" d="M15.8572674,14.4067707l0.8285275,1.3556852c0.0820179,0.1169605,0.2658081,0.1800041,0.3956776,0.1412764
      l2.0129967-0.6002817c0.1298695-0.0387278,0.1841774-0.1727715,0.1021595-0.2897329l-0.8285275-1.3556843
      c-0.0820179-0.1169615-0.2658062-0.1800051-0.3956776-0.1412773l-2.0129957,0.6002817
      C15.8079119,14.16222,15.7752495,14.2898092,15.8572674,14.4067707z"/>
    <path fill="#FFFFFF" d="M19.3854218,13.3546648l0.8285275,1.3556852c0.0820198,0.1169605,0.2658081,0.1800041,0.3956795,0.1412764
      l2.0129948-0.6002808c0.1298714-0.0387278,0.1841793-0.1727724,0.1021614-0.2897339l-0.8285275-1.3556843
      c-0.0820179-0.1169615-0.2658081-0.1800041-0.3956776-0.1412764l-2.0129967,0.6002808
      C19.3577118,13.1036596,19.3034039,13.2377043,19.3854218,13.3546648z"/>
  </g>
</g>
</svg>
