<?xml version="1.0" encoding="utf-8"?>
<!-- Generator: Adobe Illustrator 27.8.0, SVG Export Plug-In . SVG Version: 6.00 Build 0)  -->
<svg version="1.1" id="Calque_1" xmlns="http://www.w3.org/2000/svg" xmlns:xlink="http://www.w3.org/1999/xlink" x="0px" y="0px"
	 width="52px" height="51px" viewBox="0 0 52 51" enable-background="new 0 0 52 51" xml:space="preserve">
<g>
	<path fill="#FFFFFF" d="M22.66,22.7l-1.73-2.84c-0.17-0.24-0.56-0.38-0.83-0.3l-4.21,1.26c-0.27,0.08-0.39,0.36-0.21,0.61
		l1.73,2.84c0.17,0.24,0.56,0.38,0.83,0.3l4.21-1.26C22.77,23.21,22.82,22.9,22.66,22.7z"/>
	<path fill="#FFFFFF" d="M6.62,21.47l8.5,13.78c1.67,2.8,5.41,4.25,8.44,3.35l17.43-5.2l0.36,1.22c0.38,1.27-0.35,2.62-1.62,3
		l-23.67,7.06c-1.27,0.38-2.62-0.35-3-1.62L6.62,21.47z M46.24,28.04l-23.72,7.07c-1.45,0.43-3.41-0.36-4.26-1.74L8.98,18.3
		l28.16-8.4l9.77,15.92c0.34,0.49,0.45,1,0.27,1.4c-0.16,0.44-0.59,0.67-0.95,0.78L46.24,28.04z M1.25,16.36l8.27,27.75
		c0.96,3.21,4.37,5.06,7.58,4.1l23.72-7.07c3.21-0.96,5.06-4.37,4.1-7.58l-0.36-1.22l2.76-0.82c1.58-0.47,2.79-1.57,3.34-3.02
		c0.6-1.46,0.39-3.17-0.55-4.67L38.33,4.81c-1.67-2.8-5.41-4.25-8.44-3.35L27.9,2.06l0.67,1.08c0.57,0.91,0.7,2.01,0.34,2.96
		c-0.36,0.95-1.14,1.62-2.14,1.92c-1.86,0.55-3.98-0.29-5.02-1.95l-1.14-1.83L14.5,6.06l0.67,1.08c0.57,0.91,0.7,2.01,0.34,2.96
		c-0.31,0.93-1.14,1.62-2.14,1.92c-1.81,0.54-3.98-0.29-4.97-1.97L7.25,8.22l-1.9,0.57C2.14,9.74,0.3,13.15,1.25,16.36z"/>
	<path fill="#FFFFFF" d="M27.1,4.02l-1.35-2.21c-0.6-1.01-1.94-1.54-3.02-1.22c-1.04,0.31-1.42,1.36-0.82,2.37l1.35,2.21
		c0.6,1.01,1.94,1.54,3.02,1.22C27.32,6.08,27.68,4.98,27.1,4.02z"/>
	<path fill="#FFFFFF" d="M13.75,8l-1.39-2.2c-0.6-1.01-1.94-1.54-3.02-1.22C8.29,4.9,7.91,5.95,8.5,6.96l1.35,2.21
		c0.6,1.01,1.94,1.54,3.02,1.22C13.96,10.06,14.33,8.96,13.75,8z"/>
	<path fill="#FFFFFF" d="M26.78,25.11l1.73,2.84c0.17,0.24,0.56,0.38,0.83,0.3l4.21-1.26c0.27-0.08,0.39-0.36,0.21-0.61l-1.73-2.84
		c-0.17-0.24-0.56-0.38-0.83-0.3L27,24.51C26.73,24.59,26.61,24.87,26.78,25.11z"/>
	<path fill="#FFFFFF" d="M34.21,22.9l1.73,2.84c0.17,0.24,0.56,0.38,0.83,0.3l4.21-1.26c0.27-0.08,0.39-0.36,0.21-0.61l-1.73-2.84
		c-0.17-0.24-0.56-0.38-0.83-0.3l-4.21,1.26C34.11,22.39,34.04,22.66,34.21,22.9z"/>
	<path fill="#FFFFFF" d="M19.36,27.33l1.73,2.84c0.17,0.24,0.56,0.38,0.83,0.3l4.21-1.26c0.27-0.08,0.39-0.36,0.21-0.61l-1.73-2.84
		c-0.17-0.24-0.56-0.38-0.83-0.3l-4.21,1.26C19.3,26.8,19.19,27.08,19.36,27.33z"/>
	<path fill="#FFFFFF" d="M23.13,19.15l1.73,2.84c0.17,0.24,0.56,0.38,0.83,0.3l4.21-1.26c0.27-0.08,0.39-0.36,0.21-0.61l-1.73-2.84
		c-0.17-0.24-0.56-0.38-0.83-0.3l-4.21,1.26C23.03,18.64,22.96,18.91,23.13,19.15z"/>
	<path fill="#FFFFFF" d="M30.51,16.95l1.73,2.84c0.17,0.24,0.56,0.38,0.83,0.3l4.21-1.26c0.27-0.08,0.39-0.36,0.21-0.61l-1.73-2.84
		c-0.17-0.24-0.56-0.38-0.83-0.3l-4.21,1.26C30.45,16.43,30.34,16.71,30.51,16.95z"/>
</g>
</svg>
