<?xml version="1.0" encoding="UTF-8"?>
<svg id="Calque_1" xmlns="http://www.w3.org/2000/svg" width="20" height="28" version="1.1" viewBox="0 0 20 28">
  <!-- Generator: Adobe Illustrator 29.0.0, SVG Export Plug-In . SVG Version: 2.1.0 Build 186)  -->
  <g>
    <g>
      <circle cx="10" cy="9.5171" r="9.5149" transform="translate(-1.9191 2.5521) rotate(-13.2825)" style="fill: none;"/>
      <path d="M9.2601,9.1082l-.5074-.8303c-.0502-.0716-.1628-.1102-.2423-.0865l-1.2329.3676c-.0795.0237-.1128.1058-.0626.1774l.5074.8303c.0502.0716.1628.1102.2423.0865l1.2329-.3676c.0928-.0277.1088-.1191.0626-.1774Z" style="fill: #fff;"/>
    </g>
    <g>
      <path d="M2.9906,7.2535l2.4233,8.1262c.2807.9412,1.2788,1.4808,2.22,1.2001l6.9464-2.0714c.9412-.2807,1.4808-1.2788,1.2001-2.22l-.1067-.3579.8086-.2411c.464-.1384.8156-.4598.978-.8835.1756-.4277.1128-.9286-.162-1.3663l-3.4504-5.568c-.4902-.821-1.584-1.2455-2.4722-.9806l-.5833.1739.1956.317c.1665.2679.2044.5886.0993.8654-.1051.2768-.3347.4751-.6263.5621-.5435.1621-1.1659-.0854-1.4698-.5722l-.333-.5358-1.7896.5337.1956.317c.1665.2679.2044.5886.0993.8654-.0919.2728-.3347.4751-.6263.5621-.5303.1581-1.1659-.0854-1.4565-.5761l-.333-.5359-.5568.166c-.9412.2807-1.4808,1.2788-1.2001,2.22ZM16.1648,10.6725l-6.9464,2.0714c-.4242.1265-.9989-.1063-1.2486-.5082l-2.7169-4.4154,8.2456-2.4588,2.8623,4.6608c.1005.1433.1307.293.0788.4096-.0479.1298-.1726.1958-.2786.2274l.004.0133ZM4.5623,8.748l2.4883,4.0361c.4902.821,1.584,1.2455,2.4722.9806l5.1038-1.522.1067.3579c.1107.3712-.1033.767-.4745.8777l-6.9332,2.0675c-.3712.1107-.767-.1033-.8777-.4745l-1.8856-6.3234Z" style="fill: #fff;"/>
      <path d="M10.5597,3.6395l-.3951-.6473c-.1744-.2944-.5677-.4514-.8858-.3566-.3049.0909-.4154.3981-.241.6926l.3951.6473c.1744.2944.5677.4514.8858.3566.3049-.0909.4114-.4114.241-.6926Z" style="fill: #fff;"/>
      <path d="M6.649,4.8056l-.4084-.6433c-.1744-.2944-.5677-.4514-.8858-.3566-.3049.0909-.4154.3981-.241.6926l.3951.6473c.1744.2944.5677.4514.8858.3566.3182-.0949.4247-.4153.2542-.6965Z" style="fill: #fff;"/>
      <path d="M10.4674,9.8165l.5074.8303c.0502.0716.1628.1102.2423.0865l1.2329-.3676c.0795-.0237.1128-.1058.0626-.1774l-.5074-.8303c-.0502-.0716-.1628-.1102-.2423-.0865l-1.2329.3676c-.0795.0237-.1128.1058-.0626.1774Z" style="fill: #fff;"/>
      <path d="M12.6414,9.1681l.5074.8303c.0502.0716.1628.1102.2423.0865l1.2329-.3676c.0795-.0237.1128-.1058.0626-.1774l-.5074-.8303c-.0502-.0716-.1628-.1102-.2423-.0865l-1.2329.3676c-.0928.0277-.1128.1058-.0626.1774Z" style="fill: #fff;"/>
      <path d="M8.2933,10.4648l.5074.8303c.0502.0716.1628.1102.2423.0865l1.2329-.3676c.0795-.0237.1128-.1058.0626-.1774l-.5074-.8303c-.0502-.0716-.1628-.1102-.2423-.0865l-1.2329.3676c-.0795.0237-.1128.1058-.0626.1774Z" style="fill: #fff;"/>
      <path d="M9.3983,8.071l.5074.8303c.0502.0716.1628.1102.2423.0865l1.2329-.3676c.0795-.0237.1128-.1058.0626-.1774l-.5074-.8303c-.0502-.0716-.1628-.1102-.2423-.0865l-1.2329.3676c-.0928.0277-.1128.1058-.0626.1774Z" style="fill: #fff;"/>
      <path d="M11.5591,7.4266l.5074.8303c.0502.0716.1628.1102.2423.0865l1.2329-.3676c.0795-.0237.1128-.1058.0626-.1774l-.5074-.8303c-.0502-.0716-.1628-.1102-.2423-.0865l-1.2329.3676c-.0795.0237-.1128.1058-.0626.1774Z" style="fill: #fff;"/>
    </g>
  </g>
  <g>
    <polygon points="9.9262 25.9799 14.2157 19.9865 5.6367 19.9865 9.9262 25.9799" style="fill: #fff;"/>
    <line x1="18.6842" y1="27.2496" x2="1.3158" y2="27.2496" style="fill: none; stroke: #fff; stroke-miterlimit: 10;"/>
  </g>
</svg>