<?xml version="1.0" encoding="UTF-8"?>
<svg id="Calque_1" xmlns="http://www.w3.org/2000/svg" width="22.8421" height="28" version="1.1" viewBox="0 0 22.8421 28">
  <!-- Generator: Adobe Illustrator 29.0.0, SVG Export Plug-In . SVG Version: 2.1.0 Build 186)  -->
  <g>
    <line x1="4.4395" y1="5.7897" x2="4.4395" y2="21.5788" style="fill: none; stroke: #fff; stroke-miterlimit: 10; stroke-width: 1.137px;"/>
    <polygon points=".4708 6.9509 4.4391 .0784 8.4078 6.9509 .4708 6.9509" style="fill: #fff;"/>
    <polygon points=".4708 20.4175 4.4391 27.29 8.4078 20.4175 .4708 20.4175" style="fill: #fff;"/>
  </g>
  <path d="M11.0298,11.2661c.3548-.0877.6355-.2525.8422-.4926.2056-.24.6168-.885,1.2325-1.9327L17.7849.8256h.3517l1.5424,9.0713c.0991.5844.216.9486.3517,1.0916.1357.144.4258.2369.8693.2776v.2588h-3.9531v-.2588c.4748-.0459.7827-.1033.9236-.1711.2244-.1044.3371-.3079.3371-.6115,0-.0772-.0031-.1607-.0083-.2505-.0052-.0877-.0125-.1638-.023-.2265l-.3444-2.0976h-3.4229l-1.0071,1.8002c-.0678.12-.1284.2484-.1805.384-.0887.24-.1325.4404-.1325.6021,0,.2035.0689.3475.2077.431.1378.0835.384.1304.7389.1398v.2588h-3.0055v-.2588ZM17.7379,7.3381l-.6815-4.1566-2.3272,4.1566h3.0086Z" style="fill: #fff;"/>
  <path d="M11.0298,26.672c.3548-.0877.6355-.2525.8422-.4926.2056-.24.6168-.885,1.2325-1.9327l4.6804-8.0152h.3517l1.5424,9.0713c.0991.5844.216.9486.3517,1.0916.1357.144.4258.2369.8693.2776v.2588h-3.9531v-.2588c.4748-.0459.7827-.1033.9236-.1711.2244-.1044.3371-.3079.3371-.6115,0-.0772-.0031-.1607-.0083-.2505-.0052-.0877-.0125-.1638-.023-.2265l-.3444-2.0976h-3.4229l-1.0071,1.8002c-.0678.12-.1284.2484-.1805.384-.0887.24-.1325.4404-.1325.6021,0,.2035.0689.3475.2077.431.1378.0835.384.1304.7389.1398v.2588h-3.0055v-.2588ZM17.7379,22.744l-.6815-4.1566-2.3272,4.1566h3.0086Z" style="fill: #fff;"/>
  <line x1="22.6462" y1="14.2261" x2="9.4984" y2="14.2261" style="fill: none; stroke: #fff; stroke-miterlimit: 10; stroke-width: .5948px;"/>
</svg>