<?xml version="1.0" encoding="UTF-8"?>
<svg id="Calque_1" xmlns="http://www.w3.org/2000/svg" width="22.8421" height="28" version="1.1" viewBox="0 0 22.8421 28">
  <!-- Generator: Adobe Illustrator 29.0.0, SVG Export Plug-In . SVG Version: 2.1.0 Build 186)  -->
  <rect x="-.1217" y="3.0361" width="22.7404" height="14.482" style="fill: #4d5d67;"/>
  <g>
    <line x1="17.2814" y1="24" x2="5.4923" y2="24" style="fill: none; stroke: #4d5d67; stroke-miterlimit: 10; stroke-width: 1.137px;"/>
    <polygon points="16.1202 20.0313 22.9927 23.9996 16.1202 27.9683 16.1202 20.0313" style="fill: #4d5d67;"/>
    <polygon points="6.6536 20.0313 -.2189 23.9996 6.6536 27.9683 6.6536 20.0313" style="fill: #4d5d67;"/>
  </g>
  <g>
    <path d="M7.1597,4.6296v.2748c-.4108.0222-.7106.075-.8994.1582-.2831.1332-.4253.3636-.4253.6907,0,.0444.0033.0899.0089.1377s.0111.0922.0167.1366l1.0948,7.4162h.0999l3.4355-5.9327c.1732-.2954.3387-.5985.4941-.9105.2609-.5263.392-.8927.392-1.0976s-.0811-.3437-.2421-.4153c-.161-.0722-.4353-.1332-.8239-.1832v-.2748h3.1623v.2748c-.2443.05-.4264.111-.5452.1832-.1199.0722-.2543.2332-.4042.483l-6.358,10.5013h-.3331l-1.4424-8.8774c-.1721-1.0493-.3209-1.6794-.4464-1.8904-.1244-.211-.4231-.3442-.895-.3997v-.2748h4.1106Z" style="fill: #fff;"/>
    <path d="M10.4497,15.4801c.3775-.0933.6762-.2687.8961-.5241.2187-.2554.6562-.9416,1.3113-2.0564l4.98-8.5282h.3742l1.6411,9.6519c.1055.6218.2298,1.0093.3742,1.1614.1443.1532.453.2521.9249.2954v.2754h-4.2061v-.2754c.5052-.0489.8328-.1099.9827-.1821.2387-.111.3586-.3276.3586-.6507,0-.0822-.0033-.171-.0089-.2665-.0056-.0933-.0133-.1743-.0244-.241l-.3664-2.2318h-3.642l-1.0715,1.9154c-.0722.1277-.1366.2643-.1921.4086-.0944.2554-.141.4686-.141.6407,0,.2165.0733.3698.221.4586.1466.0888.4086.1388.7861.1488v.2754h-3.1979v-.2754ZM17.5872,11.3007l-.7251-4.4226-2.4761,4.4226h3.2012Z" style="fill: #fff;"/>
  </g>
</svg>